<svg xmlns="http://www.w3.org/2000/svg" xmlns:xlink="http://www.w3.org/1999/xlink" width="2000" zoomAndPan="magnify" viewBox="0 0 1500 1499.999933" height="2000" preserveAspectRatio="xMidYMid meet" version="1.0"><style>:root{color-scheme:light dark}path{fill:#1e3a5e}@media (prefers-color-scheme:dark){path{fill:#f8fafc}}</style><defs><clipPath id="4ea536b45a"><path d="M 643 398.738281 L 826 398.738281 L 826 549 L 643 549 Z M 643 398.738281 " clip-rule="nonzero"/></clipPath><clipPath id="cb1eeefa4c"><path d="M 810 241.265625 L 1370.089844 241.265625 L 1370.089844 1259 L 810 1259 Z M 810 241.265625 " clip-rule="nonzero"/></clipPath><clipPath id="45a950a568"><path d="M 129.589844 241.265625 L 690 241.265625 L 690 1259 L 129.589844 1259 Z M 129.589844 241.265625 " clip-rule="nonzero"/></clipPath></defs><path fill="#1e3a5e" d="M 582.0625 574.84375 C 605.855469 577.453125 627.222656 560.246094 629.832031 536.457031 C 632.441406 512.664062 615.234375 491.296875 591.445312 488.6875 C 567.652344 486.078125 546.285156 503.285156 543.675781 527.078125 C 541.066406 550.867188 558.273438 572.234375 582.0625 574.84375 Z M 582.0625 574.84375 " fill-opacity="1" fill-rule="nonzero"/><path fill="#1e3a5e" d="M 598.277344 752.4375 L 535.847656 752.4375 C 521.1875 752.4375 508.640625 741.941406 506.09375 727.464844 L 484.789062 606.773438 C 483.359375 598.574219 475.53125 593.109375 467.394531 594.597656 C 459.195312 596.027344 453.730469 603.855469 455.222656 611.992188 L 476.589844 732.683594 C 481.683594 761.507812 506.652344 782.441406 535.972656 782.441406 L 587.777344 782.441406 L 587.777344 837.164062 C 587.777344 845.488281 594.488281 852.199219 602.8125 852.199219 C 611.136719 852.199219 617.84375 845.488281 617.84375 837.164062 L 617.84375 771.941406 C 617.78125 761.195312 609.023438 752.4375 598.277344 752.4375 Z M 598.277344 752.4375 " fill-opacity="1" fill-rule="nonzero"/><path fill="#1e3a5e" d="M 647.472656 689.265625 L 608.027344 689.265625 L 606.664062 619.753906 C 606.351562 603.292969 594.734375 589.257812 578.648438 585.777344 C 572.496094 584.472656 567.839844 583.480469 567.839844 583.480469 C 559.453125 581.679688 550.820312 583.230469 543.613281 587.890625 C 536.40625 592.546875 529.886719 604.039062 529.265625 618.761719 C 528.644531 633.484375 526.40625 686.78125 526.40625 696.59375 C 526.40625 706.410156 526.78125 715.355469 532.742188 722.683594 C 538.707031 730.011719 547.527344 734.238281 556.96875 734.238281 L 626.539062 734.238281 C 631.011719 734.238281 634.675781 737.902344 634.675781 742.375 L 634.675781 827.785156 C 634.675781 838.96875 642.316406 849.339844 653.375 851.140625 C 667.476562 853.441406 679.585938 842.632812 679.585938 828.964844 L 679.585938 721.503906 C 679.710938 703.675781 665.300781 689.265625 647.472656 689.265625 Z M 647.472656 689.265625 " fill-opacity="1" fill-rule="nonzero"/><path fill="#1e3a5e" d="M 917.867188 574.84375 C 941.660156 572.234375 958.867188 550.867188 956.257812 527.078125 C 953.648438 503.285156 932.28125 486.078125 908.488281 488.6875 C 884.699219 491.296875 867.492188 512.664062 870.101562 536.457031 C 872.710938 560.246094 894.078125 577.453125 917.867188 574.84375 Z M 917.867188 574.84375 " fill-opacity="1" fill-rule="nonzero"/><path fill="#1e3a5e" d="M 1032.597656 594.597656 C 1024.460938 593.109375 1016.636719 598.574219 1015.207031 606.773438 L 993.839844 727.464844 C 991.292969 741.941406 978.742188 752.4375 964.085938 752.4375 L 901.65625 752.4375 C 890.910156 752.4375 882.214844 761.195312 882.214844 771.878906 L 882.214844 837.164062 C 882.214844 845.488281 888.921875 852.199219 897.246094 852.199219 C 905.570312 852.199219 912.277344 845.488281 912.277344 837.164062 L 912.277344 782.441406 L 964.085938 782.441406 C 993.402344 782.441406 1018.3125 761.507812 1023.46875 732.683594 L 1044.835938 611.992188 C 1046.265625 603.855469 1040.800781 596.027344 1032.597656 594.597656 Z M 1032.597656 594.597656 " fill-opacity="1" fill-rule="nonzero"/><path fill="#1e3a5e" d="M 967.066406 722.683594 C 973.027344 715.355469 973.402344 706.472656 973.402344 696.59375 C 973.402344 686.71875 971.164062 633.421875 970.542969 618.761719 C 969.921875 604.039062 963.402344 592.546875 956.195312 587.890625 C 948.988281 583.230469 940.355469 581.617188 931.96875 583.480469 C 931.96875 583.480469 927.3125 584.472656 921.160156 585.777344 C 905.074219 589.257812 893.457031 603.292969 893.148438 619.753906 L 891.78125 689.265625 L 852.460938 689.265625 C 834.632812 689.265625 820.222656 703.675781 820.222656 721.503906 L 820.222656 828.964844 C 820.222656 842.632812 832.394531 853.441406 846.433594 851.140625 C 857.492188 849.339844 865.132812 838.96875 865.132812 827.785156 L 865.132812 742.3125 C 865.132812 737.839844 868.796875 734.175781 873.269531 734.175781 L 942.839844 734.175781 C 952.28125 734.175781 961.101562 730.011719 967.066406 722.683594 Z M 967.066406 722.683594 " fill-opacity="1" fill-rule="nonzero"/><g clip-path="url(#4ea536b45a)"><path fill="#1e3a5e" d="M 734.375 398.804688 C 684.371094 398.804688 643.746094 427.75 643.746094 463.53125 C 643.746094 483.90625 656.976562 502.042969 677.539062 513.90625 C 675.550781 519.808594 671.636719 527.386719 663.746094 536.582031 C 658.714844 542.417969 664.617188 550.992188 671.824219 548.320312 C 686.730469 542.792969 703.8125 535.027344 719.652344 527.261719 C 724.4375 527.824219 729.34375 528.195312 734.375 528.195312 C 784.441406 528.195312 825.003906 499.25 825.003906 463.53125 C 825.003906 427.75 784.441406 398.804688 734.375 398.804688 Z M 689.527344 476.699219 C 682.257812 476.699219 676.296875 470.800781 676.296875 463.46875 C 676.296875 456.203125 682.257812 450.238281 689.527344 450.238281 C 696.792969 450.238281 702.757812 456.140625 702.757812 463.46875 C 702.757812 470.800781 696.855469 476.699219 689.527344 476.699219 Z M 734.375 476.699219 C 727.109375 476.699219 721.144531 470.800781 721.144531 463.46875 C 721.144531 456.203125 727.046875 450.238281 734.375 450.238281 C 741.644531 450.238281 747.605469 456.140625 747.605469 463.46875 C 747.605469 470.800781 741.703125 476.699219 734.375 476.699219 Z M 779.222656 476.699219 C 771.957031 476.699219 765.992188 470.800781 765.992188 463.46875 C 765.992188 456.203125 771.894531 450.238281 779.222656 450.238281 C 786.492188 450.238281 792.453125 456.140625 792.453125 463.46875 C 792.453125 470.800781 786.492188 476.699219 779.222656 476.699219 Z M 779.222656 476.699219 " fill-opacity="1" fill-rule="nonzero"/></g><path fill="#1e3a5e" d="M 1236.761719 352.96875 C 1232.433594 380.121094 1228.105469 407.273438 1223.773438 434.429688 C 1217.042969 476.585938 1210.308594 518.742188 1203.574219 560.890625 L 1194.6875 616.453125 C 1191.371094 620.191406 1187.894531 624.1875 1184.242188 628.398438 C 1181.429688 631.617188 1178.472656 634.980469 1175.484375 638.425781 C 1174.273438 639.871094 1173.046875 641.226562 1171.789062 642.640625 C 1168.023438 646.882812 1164.101562 651.296875 1159.972656 655.8125 C 1159.398438 656.449219 1158.804688 657.113281 1158.199219 657.746094 C 1154.605469 661.65625 1150.871094 665.667969 1146.972656 669.734375 C 1144.753906 672.058594 1142.5 674.394531 1140.179688 676.734375 C 1139.023438 677.917969 1137.839844 679.101562 1136.660156 680.28125 L 1168.082031 428.46875 L 1171.316406 402.5 C 1171.550781 400.605469 1171.882812 398.730469 1172.308594 396.867188 C 1172.734375 395.007812 1173.25 393.171875 1173.855469 391.363281 C 1174.464844 389.554688 1175.160156 387.78125 1175.945312 386.042969 C 1176.730469 384.304688 1177.597656 382.605469 1178.554688 380.953125 C 1179.507812 379.300781 1180.542969 377.699219 1181.65625 376.152344 C 1182.769531 374.601562 1183.957031 373.113281 1185.21875 371.679688 C 1186.480469 370.25 1187.8125 368.886719 1189.210938 367.585938 C 1190.609375 366.289062 1192.066406 365.0625 1193.589844 363.910156 C 1195.109375 362.757812 1196.683594 361.683594 1198.3125 360.6875 C 1199.941406 359.691406 1201.613281 358.78125 1203.332031 357.953125 C 1205.050781 357.125 1206.804688 356.382812 1208.597656 355.730469 C 1210.390625 355.074219 1212.214844 354.511719 1214.0625 354.042969 C 1215.910156 353.570312 1217.777344 353.191406 1219.664062 352.90625 C 1221.550781 352.621094 1223.449219 352.429688 1225.355469 352.332031 C 1227.257812 352.238281 1229.164062 352.234375 1231.070312 352.328125 C 1232.976562 352.421875 1234.875 352.613281 1236.761719 352.894531 Z M 1236.761719 352.96875 " fill-opacity="1" fill-rule="nonzero"/><path fill="#1e3a5e" d="M 1144.40625 438.238281 L 1111.121094 704.464844 L 1110.949219 704.609375 C 1107.800781 707.421875 1104.671875 710.179688 1101.511719 712.847656 C 1098.351562 715.515625 1095.222656 718.183594 1092.0625 720.769531 C 1090.445312 722.109375 1088.816406 723.410156 1087.171875 724.734375 C 1085.523438 726.0625 1083.859375 727.382812 1082.179688 728.6875 L 1079.449219 730.808594 C 1078.355469 731.660156 1077.242188 732.511719 1076.148438 733.335938 C 1074.457031 734.632812 1072.757812 735.902344 1071.054688 737.171875 C 1067.027344 740.160156 1062.929688 743.117188 1058.789062 746.003906 C 1057.578125 746.882812 1056.335938 747.71875 1055.109375 748.570312 L 1051.71875 750.894531 L 1049.109375 752.652344 C 1047.765625 753.5625 1046.394531 754.457031 1045.039062 755.335938 L 1044.015625 756.03125 C 1043.683594 756.246094 1043.335938 756.476562 1042.992188 756.679688 L 1076.492188 488.488281 C 1076.710938 486.773438 1077.003906 485.070312 1077.375 483.382812 C 1077.746094 481.691406 1078.191406 480.023438 1078.710938 478.375 C 1079.234375 476.726562 1079.828125 475.101562 1080.496094 473.507812 C 1081.164062 471.914062 1081.902344 470.351562 1082.710938 468.820312 C 1083.519531 467.292969 1084.394531 465.804688 1085.339844 464.355469 C 1086.28125 462.902344 1087.289062 461.5 1088.359375 460.140625 C 1089.429688 458.78125 1090.558594 457.476562 1091.746094 456.21875 C 1092.933594 454.960938 1094.175781 453.761719 1095.472656 452.617188 C 1096.769531 451.472656 1098.117188 450.386719 1099.511719 449.363281 C 1100.90625 448.34375 1102.34375 447.382812 1103.824219 446.492188 C 1105.304688 445.597656 1106.824219 444.773438 1108.378906 444.015625 C 1109.933594 443.261719 1111.519531 442.578125 1113.136719 441.964844 C 1114.753906 441.351562 1116.398438 440.8125 1118.0625 440.347656 C 1119.730469 439.882812 1121.414062 439.496094 1123.113281 439.183594 C 1124.816406 438.871094 1126.527344 438.636719 1128.25 438.476562 C 1129.972656 438.320312 1131.695312 438.238281 1133.425781 438.238281 Z M 1144.40625 438.238281 " fill-opacity="1" fill-rule="nonzero"/><g clip-path="url(#cb1eeefa4c)"><path fill="#1e3a5e" d="M 1369.859375 475.691406 C 1369.441406 521.3125 1368.804688 567.167969 1367.941406 611.996094 C 1365.546875 737.085938 1319.230469 857.402344 1237.539062 950.621094 L 1236.816406 951.460938 L 1235.996094 952.410156 L 1235.878906 952.527344 C 1203.625 989.214844 1169.410156 1023.976562 1133.238281 1056.8125 C 1129.976562 1059.78125 1126.875 1062.90625 1123.9375 1066.199219 C 1121 1069.488281 1118.238281 1072.917969 1115.660156 1076.496094 C 1113.078125 1080.074219 1110.691406 1083.773438 1108.496094 1087.597656 C 1106.300781 1091.425781 1104.308594 1095.355469 1102.523438 1099.386719 C 1100.738281 1103.417969 1099.164062 1107.53125 1097.804688 1111.730469 C 1096.449219 1115.925781 1095.3125 1120.179688 1094.394531 1124.496094 C 1093.480469 1128.808594 1092.792969 1133.160156 1092.328125 1137.546875 C 1091.867188 1141.929688 1091.632812 1146.328125 1091.628906 1150.738281 L 1091.628906 1229.589844 C 1091.628906 1230.53125 1091.582031 1231.472656 1091.488281 1232.414062 C 1091.398438 1233.351562 1091.257812 1234.285156 1091.074219 1235.210938 C 1090.890625 1236.136719 1090.664062 1237.050781 1090.390625 1237.953125 C 1090.117188 1238.855469 1089.800781 1239.742188 1089.4375 1240.617188 C 1089.078125 1241.488281 1088.675781 1242.339844 1088.230469 1243.171875 C 1087.789062 1244.003906 1087.304688 1244.8125 1086.78125 1245.597656 C 1086.257812 1246.382812 1085.695312 1247.140625 1085.097656 1247.871094 C 1084.5 1248.601562 1083.867188 1249.300781 1083.203125 1249.96875 C 1082.535156 1250.636719 1081.839844 1251.269531 1081.109375 1251.871094 C 1080.382812 1252.46875 1079.625 1253.03125 1078.839844 1253.558594 C 1078.058594 1254.082031 1077.25 1254.570312 1076.417969 1255.015625 C 1075.585938 1255.460938 1074.734375 1255.867188 1073.863281 1256.226562 C 1072.992188 1256.589844 1072.105469 1256.910156 1071.203125 1257.1875 C 1070.300781 1257.460938 1069.386719 1257.691406 1068.464844 1257.878906 C 1067.539062 1258.066406 1066.605469 1258.207031 1065.667969 1258.300781 C 1064.730469 1258.394531 1063.789062 1258.441406 1062.84375 1258.445312 L 847.375 1258.445312 C 846.539062 1258.445312 845.707031 1258.40625 844.875 1258.332031 C 844.042969 1258.257812 843.214844 1258.148438 842.390625 1258.003906 C 841.566406 1257.855469 840.753906 1257.675781 839.945312 1257.457031 C 839.140625 1257.242188 838.34375 1256.992188 837.558594 1256.703125 C 836.773438 1256.417969 836 1256.101562 835.246094 1255.746094 C 834.488281 1255.394531 833.746094 1255.007812 833.023438 1254.59375 C 832.296875 1254.175781 831.59375 1253.726562 830.910156 1253.25 C 830.222656 1252.769531 829.5625 1252.261719 828.917969 1251.726562 C 828.277344 1251.191406 827.664062 1250.628906 827.070312 1250.039062 C 826.476562 1249.449219 825.914062 1248.835938 825.375 1248.199219 C 824.835938 1247.558594 824.324219 1246.898438 823.84375 1246.214844 C 823.363281 1245.53125 822.910156 1244.828125 822.492188 1244.109375 C 822.070312 1243.386719 821.683594 1242.648438 821.324219 1241.890625 C 820.96875 1241.136719 820.648438 1240.363281 820.359375 1239.582031 C 820.066406 1238.796875 819.8125 1238.003906 819.59375 1237.195312 C 819.371094 1236.390625 819.1875 1235.578125 819.039062 1234.753906 C 808.085938 1174.734375 802.777344 1082.265625 839.769531 982.695312 C 840.925781 979.578125 842.210938 976.261719 843.695312 972.597656 C 871.730469 902.230469 925.734375 844.300781 995.738281 809.441406 C 1008.492188 803.109375 1021.59375 795.980469 1034.695312 788.25 C 1051.78125 778.058594 1068.316406 767.042969 1084.296875 755.195312 C 1099.59375 743.839844 1114.265625 731.792969 1129.125 718.371094 L 1129.644531 717.855469 C 1129.683594 717.824219 1129.71875 717.789062 1129.746094 717.753906 C 1130.699219 716.902344 1131.636719 716.035156 1132.632812 715.15625 C 1133.628906 714.277344 1134.492188 713.453125 1135.402344 712.585938 C 1136.3125 711.722656 1137.234375 710.898438 1138.144531 710.019531 C 1142.472656 705.90625 1146.800781 701.824219 1150.785156 697.785156 L 1153.28125 695.289062 C 1161.113281 687.425781 1168.355469 679.761719 1175.066406 672.433594 C 1176.175781 671.238281 1177.273438 670.023438 1178.339844 668.855469 C 1180.449219 666.503906 1182.523438 664.210938 1184.53125 661.945312 L 1188.324219 657.6875 C 1192.796875 652.609375 1197.039062 647.757812 1201.050781 643.128906 C 1205.464844 638.066406 1209.621094 633.261719 1213.488281 628.949219 C 1229.503906 610.941406 1239.457031 602.601562 1243.222656 604.117188 C 1245.199219 604.910156 1248.476562 608.75 1251.203125 616.84375 C 1260.683594 645.035156 1256.5 697.871094 1233.125 737.460938 C 1219.402344 760.707031 1203.027344 772.578125 1184.070312 786.359375 C 1164.792969 800.339844 1142.949219 816.195312 1120.585938 846.523438 C 1099.160156 875.421875 1083.734375 908.996094 1074.632812 946.292969 C 1074.460938 947.003906 1074.359375 947.726562 1074.328125 948.457031 C 1074.296875 949.1875 1074.339844 949.917969 1074.453125 950.640625 C 1074.566406 951.363281 1074.75 952.066406 1075 952.753906 C 1075.253906 953.441406 1075.570312 954.097656 1075.949219 954.722656 C 1076.332031 955.347656 1076.769531 955.929688 1077.265625 956.46875 C 1077.761719 957.007812 1078.304688 957.492188 1078.894531 957.925781 C 1079.488281 958.355469 1080.113281 958.726562 1080.777344 959.035156 C 1081.441406 959.34375 1082.128906 959.582031 1082.839844 959.753906 C 1083.707031 959.96875 1084.589844 960.074219 1085.480469 960.074219 C 1086.101562 960.070312 1086.714844 960.019531 1087.328125 959.914062 C 1087.9375 959.8125 1088.535156 959.65625 1089.121094 959.453125 C 1089.707031 959.25 1090.269531 959 1090.816406 958.703125 C 1091.359375 958.40625 1091.875 958.066406 1092.359375 957.683594 C 1092.847656 957.300781 1093.300781 956.878906 1093.714844 956.421875 C 1094.132812 955.960938 1094.507812 955.472656 1094.84375 954.953125 C 1095.179688 954.429688 1095.46875 953.886719 1095.714844 953.316406 C 1095.960938 952.746094 1096.15625 952.160156 1096.304688 951.558594 C 1104.65625 917.207031 1118.839844 886.289062 1138.449219 859.683594 C 1158.734375 832.125 1178.226562 818 1197.070312 804.320312 C 1217.195312 789.691406 1236.226562 775.914062 1252.285156 748.628906 C 1279.902344 701.851562 1283.203125 642.089844 1272.28125 609.601562 C 1267.695312 595.894531 1260.738281 587.0625 1251.636719 583.324219 C 1241.304688 579.113281 1231.4375 582.417969 1221.453125 589.820312 L 1225.519531 564.367188 C 1237.160156 491.648438 1248.789062 418.941406 1260.410156 346.242188 C 1262.082031 335.855469 1263.746094 325.460938 1265.398438 315.066406 C 1267.054688 304.667969 1268.71875 294.328125 1270.390625 284.042969 C 1270.636719 282.503906 1270.953125 280.976562 1271.339844 279.460938 C 1271.726562 277.949219 1272.183594 276.457031 1272.707031 274.988281 C 1273.234375 273.519531 1273.828125 272.078125 1274.488281 270.660156 C 1275.148438 269.246094 1275.871094 267.867188 1276.660156 266.519531 C 1277.449219 265.171875 1278.300781 263.863281 1279.210938 262.597656 C 1280.121094 261.328125 1281.089844 260.105469 1282.113281 258.925781 C 1283.136719 257.75 1284.214844 256.621094 1285.34375 255.546875 C 1286.476562 254.46875 1287.652344 253.445312 1288.878906 252.476562 C 1290.101562 251.511719 1291.371094 250.601562 1292.679688 249.75 C 1293.992188 248.902344 1295.335938 248.117188 1296.71875 247.390625 C 1298.101562 246.667969 1299.515625 246.007812 1300.960938 245.417969 C 1302.40625 244.824219 1303.875 244.300781 1305.367188 243.84375 C 1306.859375 243.390625 1308.371094 243.003906 1309.902344 242.691406 C 1311.429688 242.375 1312.972656 242.132812 1314.523438 241.960938 C 1316.074219 241.792969 1317.632812 241.695312 1319.191406 241.667969 C 1320.753906 241.640625 1322.3125 241.6875 1323.867188 241.808594 C 1325.425781 241.925781 1326.972656 242.117188 1328.511719 242.382812 C 1330.050781 242.644531 1331.574219 242.980469 1333.082031 243.386719 C 1334.589844 243.792969 1336.074219 244.265625 1337.539062 244.8125 C 1339 245.355469 1340.4375 245.964844 1341.84375 246.644531 C 1343.25 247.320312 1344.621094 248.0625 1345.957031 248.867188 C 1347.292969 249.675781 1348.589844 250.539062 1349.847656 251.464844 C 1351.105469 252.394531 1352.316406 253.375 1353.480469 254.414062 C 1354.644531 255.453125 1355.757812 256.546875 1356.824219 257.6875 C 1357.886719 258.832031 1358.894531 260.023438 1359.847656 261.257812 C 1360.796875 262.496094 1361.691406 263.773438 1362.523438 265.09375 C 1363.355469 266.414062 1364.128906 267.773438 1364.835938 269.164062 C 1365.539062 270.554688 1366.179688 271.976562 1366.753906 273.429688 C 1367.328125 274.882812 1367.835938 276.355469 1368.273438 277.855469 C 1368.707031 279.355469 1369.074219 280.871094 1369.371094 282.402344 C 1369.664062 283.9375 1369.890625 285.480469 1370.039062 287.03125 C 1370.191406 288.585938 1370.273438 290.144531 1370.277344 291.707031 C 1370.539062 352.503906 1370.40625 414.402344 1369.859375 475.691406 Z M 1369.859375 475.691406 " fill-opacity="1" fill-rule="nonzero"/></g><path fill="#1e3a5e" d="M 363.328125 680.269531 C 362.144531 679.085938 360.960938 677.917969 359.820312 676.734375 C 357.496094 674.394531 355.246094 672.058594 353.023438 669.734375 C 349.128906 665.667969 345.394531 661.65625 341.800781 657.746094 C 341.195312 657.113281 340.601562 656.449219 340.027344 655.8125 C 335.898438 651.296875 331.976562 646.882812 328.207031 642.640625 C 326.953125 641.195312 325.726562 639.753906 324.515625 638.425781 C 321.484375 634.980469 318.570312 631.617188 315.757812 628.398438 C 312.105469 624.1875 308.628906 620.191406 305.3125 616.453125 L 296.421875 560.890625 C 285.34375 491.578125 274.28125 422.269531 263.238281 352.96875 C 265.125 352.683594 267.023438 352.492188 268.929688 352.394531 C 270.835938 352.300781 272.742188 352.300781 274.648438 352.394531 C 276.554688 352.488281 278.453125 352.679688 280.339844 352.964844 C 282.230469 353.246094 284.097656 353.625 285.949219 354.097656 C 287.796875 354.566406 289.621094 355.128906 291.414062 355.78125 C 293.207031 356.433594 294.964844 357.175781 296.683594 358.003906 C 298.402344 358.832031 300.078125 359.746094 301.707031 360.738281 C 303.335938 361.734375 304.910156 362.808594 306.429688 363.960938 C 307.953125 365.117188 309.414062 366.339844 310.8125 367.640625 C 312.210938 368.9375 313.542969 370.304688 314.804688 371.734375 C 316.066406 373.167969 317.253906 374.65625 318.371094 376.207031 C 319.484375 377.757812 320.515625 379.359375 321.46875 381.015625 C 322.425781 382.667969 323.292969 384.363281 324.078125 386.105469 C 324.863281 387.847656 325.558594 389.621094 326.164062 391.429688 C 326.769531 393.242188 327.285156 395.078125 327.710938 396.9375 C 328.132812 398.800781 328.464844 400.675781 328.699219 402.570312 L 331.929688 428.542969 Z M 363.328125 680.269531 " fill-opacity="1" fill-rule="nonzero"/><path fill="#1e3a5e" d="M 457.109375 756.707031 L 456.546875 756.347656 C 454.542969 755.035156 452.519531 753.707031 450.558594 752.367188 C 448.84375 751.226562 447.152344 750.070312 445.453125 748.902344 C 444.007812 747.9375 442.566406 746.957031 441.222656 746.015625 C 437.097656 743.132812 433.039062 740.207031 429.046875 737.246094 C 427.34375 735.976562 425.640625 734.707031 423.953125 733.40625 C 422.855469 732.585938 421.746094 731.734375 420.648438 730.882812 C 419.554688 730.03125 418.832031 729.4375 417.921875 728.761719 C 416.234375 727.449219 414.589844 726.148438 412.929688 724.808594 C 408.5 721.257812 404.085938 717.59375 399.699219 713.871094 C 398.949219 713.238281 398.183594 712.585938 397.449219 711.9375 C 397.308594 711.839844 397.179688 711.730469 397.058594 711.605469 C 396.019531 710.726562 394.980469 709.832031 393.929688 708.910156 L 388.949219 704.578125 L 355.59375 438.238281 L 366.574219 438.238281 C 368.304688 438.238281 370.027344 438.320312 371.75 438.476562 C 373.472656 438.636719 375.183594 438.871094 376.886719 439.183594 C 378.585938 439.496094 380.269531 439.882812 381.9375 440.347656 C 383.601562 440.8125 385.246094 441.351562 386.863281 441.964844 C 388.480469 442.578125 390.066406 443.261719 391.621094 444.015625 C 393.175781 444.773438 394.695312 445.597656 396.175781 446.492188 C 397.65625 447.382812 399.09375 448.34375 400.488281 449.363281 C 401.882812 450.386719 403.230469 451.472656 404.527344 452.617188 C 405.824219 453.761719 407.066406 454.960938 408.253906 456.21875 C 409.441406 457.476562 410.570312 458.78125 411.640625 460.140625 C 412.710938 461.5 413.71875 462.902344 414.660156 464.355469 C 415.605469 465.804688 416.480469 467.292969 417.289062 468.820312 C 418.097656 470.351562 418.835938 471.914062 419.503906 473.507812 C 420.171875 475.101562 420.765625 476.726562 421.289062 478.375 C 421.808594 480.023438 422.253906 481.691406 422.625 483.382812 C 422.996094 485.070312 423.289062 486.773438 423.507812 488.488281 Z M 457.109375 756.707031 " fill-opacity="1" fill-rule="nonzero"/><g clip-path="url(#45a950a568)"><path fill="#1e3a5e" d="M 680.960938 1234.695312 C 680.8125 1235.519531 680.625 1236.332031 680.40625 1237.136719 C 680.183594 1237.941406 679.929688 1238.738281 679.636719 1239.519531 C 679.347656 1240.300781 679.023438 1241.070312 678.667969 1241.828125 C 678.3125 1242.582031 677.921875 1243.320312 677.503906 1244.042969 C 677.082031 1244.761719 676.632812 1245.464844 676.148438 1246.148438 C 675.667969 1246.828125 675.15625 1247.488281 674.617188 1248.125 C 674.078125 1248.765625 673.515625 1249.378906 672.921875 1249.964844 C 672.328125 1250.554688 671.714844 1251.117188 671.070312 1251.652344 C 670.429688 1252.1875 669.769531 1252.695312 669.082031 1253.171875 C 668.398438 1253.648438 667.695312 1254.097656 666.96875 1254.511719 C 666.246094 1254.929688 665.507812 1255.3125 664.75 1255.667969 C 663.992188 1256.019531 663.222656 1256.335938 662.4375 1256.621094 C 661.652344 1256.90625 660.855469 1257.160156 660.050781 1257.375 C 659.242188 1257.589844 658.429688 1257.773438 657.605469 1257.917969 C 656.785156 1258.0625 655.957031 1258.171875 655.125 1258.246094 C 654.292969 1258.320312 653.460938 1258.359375 652.625 1258.359375 L 437.15625 1258.359375 C 436.210938 1258.355469 435.269531 1258.308594 434.332031 1258.214844 C 433.394531 1258.117188 432.460938 1257.976562 431.535156 1257.792969 C 430.609375 1257.605469 429.699219 1257.375 428.796875 1257.097656 C 427.894531 1256.824219 427.007812 1256.503906 426.136719 1256.140625 C 425.265625 1255.777344 424.414062 1255.375 423.582031 1254.929688 C 422.75 1254.480469 421.941406 1253.996094 421.160156 1253.472656 C 420.375 1252.945312 419.617188 1252.382812 418.890625 1251.785156 C 418.160156 1251.183594 417.464844 1250.550781 416.796875 1249.882812 C 416.132812 1249.214844 415.5 1248.515625 414.902344 1247.785156 C 414.304688 1247.054688 413.742188 1246.296875 413.21875 1245.511719 C 412.695312 1244.726562 412.210938 1243.917969 411.769531 1243.085938 C 411.324219 1242.253906 410.921875 1241.402344 410.5625 1240.527344 C 410.199219 1239.65625 409.882812 1238.769531 409.609375 1237.867188 C 409.335938 1236.964844 409.109375 1236.050781 408.925781 1235.125 C 408.742188 1234.199219 408.601562 1233.265625 408.511719 1232.328125 C 408.417969 1231.386719 408.371094 1230.445312 408.371094 1229.503906 L 408.371094 1150.738281 C 408.367188 1146.328125 408.132812 1141.929688 407.671875 1137.546875 C 407.207031 1133.160156 406.519531 1128.808594 405.605469 1124.496094 C 404.6875 1120.179688 403.550781 1115.925781 402.195312 1111.730469 C 400.835938 1107.53125 399.261719 1103.417969 397.476562 1099.386719 C 395.691406 1095.355469 393.699219 1091.425781 391.503906 1087.597656 C 389.308594 1083.773438 386.921875 1080.074219 384.339844 1076.496094 C 381.757812 1072.917969 379 1069.488281 376.0625 1066.199219 C 373.125 1062.90625 370.023438 1059.78125 366.761719 1056.8125 C 330.589844 1023.976562 296.375 989.214844 264.121094 952.527344 L 264.003906 952.410156 L 263.179688 951.460938 L 262.472656 950.652344 C 180.769531 857.402344 134.453125 737.085938 132.058594 611.996094 C 131.191406 567.167969 130.617188 521.3125 130.140625 475.691406 C 129.589844 414.402344 129.460938 352.503906 129.722656 291.75 C 129.726562 290.1875 129.804688 288.628906 129.953125 287.074219 C 130.105469 285.519531 130.328125 283.976562 130.621094 282.441406 C 130.917969 280.910156 131.28125 279.394531 131.71875 277.894531 C 132.152344 276.394531 132.65625 274.917969 133.230469 273.464844 C 133.804688 272.011719 134.445312 270.589844 135.148438 269.195312 C 135.855469 267.804688 136.625 266.445312 137.457031 265.125 C 138.289062 263.804688 139.183594 262.523438 140.132812 261.285156 C 141.085938 260.046875 142.09375 258.855469 143.15625 257.714844 C 144.21875 256.570312 145.332031 255.476562 146.496094 254.4375 C 147.660156 253.394531 148.871094 252.414062 150.128906 251.484375 C 151.382812 250.558594 152.679688 249.691406 154.019531 248.882812 C 155.355469 248.078125 156.726562 247.335938 158.132812 246.65625 C 159.539062 245.976562 160.976562 245.363281 162.4375 244.820312 C 163.902344 244.273438 165.386719 243.800781 166.894531 243.394531 C 168.402344 242.988281 169.925781 242.652344 171.464844 242.386719 C 173.003906 242.121094 174.550781 241.929688 176.109375 241.808594 C 177.667969 241.691406 179.226562 241.644531 180.789062 241.667969 C 182.347656 241.691406 183.90625 241.789062 185.457031 241.960938 C 187.011719 242.132812 188.550781 242.375 190.082031 242.6875 C 191.609375 243.003906 193.121094 243.386719 194.617188 243.839844 C 196.109375 244.296875 197.578125 244.820312 199.023438 245.410156 C 200.46875 246.003906 201.882812 246.660156 203.269531 247.386719 C 204.652344 248.109375 206 248.894531 207.308594 249.746094 C 208.621094 250.59375 209.886719 251.503906 211.113281 252.472656 C 212.339844 253.4375 213.515625 254.460938 214.648438 255.539062 C 215.777344 256.617188 216.855469 257.742188 217.878906 258.921875 C 218.90625 260.101562 219.875 261.324219 220.785156 262.589844 C 221.695312 263.859375 222.546875 265.167969 223.335938 266.515625 C 224.125 267.863281 224.851562 269.242188 225.511719 270.660156 C 226.171875 272.074219 226.765625 273.515625 227.289062 274.988281 C 227.816406 276.457031 228.273438 277.949219 228.660156 279.460938 C 229.046875 280.972656 229.363281 282.5 229.605469 284.042969 C 231.28125 294.394531 232.945312 304.738281 234.597656 315.078125 C 236.257812 325.480469 237.917969 335.898438 239.589844 346.257812 C 251.203125 418.996094 262.832031 491.707031 274.480469 564.394531 L 278.546875 589.917969 C 268.578125 582.519531 258.695312 579.214844 248.347656 583.425781 C 239.257812 587.164062 232.304688 595.992188 227.71875 609.699219 C 216.796875 642.191406 220.097656 701.953125 247.714844 748.730469 C 263.800781 775.96875 282.804688 789.75 302.886719 804.335938 C 321.730469 818.011719 341.222656 832.136719 361.507812 859.695312 C 381.117188 886.300781 395.300781 917.222656 403.652344 951.574219 C 403.800781 952.175781 403.996094 952.761719 404.242188 953.332031 C 404.484375 953.898438 404.777344 954.445312 405.113281 954.964844 C 405.445312 955.488281 405.824219 955.976562 406.238281 956.433594 C 406.65625 956.894531 407.109375 957.3125 407.597656 957.695312 C 408.082031 958.078125 408.597656 958.421875 409.140625 958.71875 C 409.683594 959.015625 410.25 959.265625 410.835938 959.46875 C 411.421875 959.671875 412.019531 959.824219 412.628906 959.929688 C 413.238281 960.03125 413.855469 960.085938 414.472656 960.085938 C 415.367188 960.089844 416.246094 959.984375 417.113281 959.769531 C 417.828125 959.597656 418.519531 959.359375 419.1875 959.054688 C 419.851562 958.746094 420.484375 958.378906 421.078125 957.949219 C 421.671875 957.515625 422.21875 957.03125 422.71875 956.492188 C 423.214844 955.953125 423.65625 955.371094 424.039062 954.746094 C 424.421875 954.121094 424.742188 953.460938 424.996094 952.773438 C 425.25 952.085938 425.433594 951.378906 425.546875 950.652344 C 425.660156 949.925781 425.703125 949.199219 425.671875 948.464844 C 425.640625 947.730469 425.539062 947.007812 425.367188 946.292969 C 416.308594 909.039062 400.839844 875.464844 379.5 846.453125 C 357.152344 816.152344 335.308594 800.28125 316.015625 786.285156 C 297.042969 772.507812 280.667969 760.632812 266.960938 737.390625 C 243.589844 697.796875 239.402344 644.960938 248.882812 616.769531 C 251.609375 608.675781 254.886719 604.839844 256.847656 604.042969 C 260.554688 602.53125 270.570312 610.871094 286.597656 628.875 C 290.464844 633.203125 294.621094 637.992188 299.035156 643.058594 C 303.671875 648.386719 308.605469 654.019531 313.839844 659.953125 C 314.429688 660.644531 315.050781 661.324219 315.671875 662.003906 C 320.289062 667.195312 325.179688 672.59375 330.34375 678.132812 C 332.480469 680.414062 334.671875 682.691406 336.878906 685.03125 L 339.1875 687.453125 C 343.246094 691.65625 347.46875 695.921875 351.855469 700.25 C 353.414062 701.78125 354.992188 703.320312 356.589844 704.867188 C 358.347656 706.542969 360.125 708.257812 361.941406 709.945312 C 362.851562 710.828125 363.757812 711.679688 364.683594 712.515625 C 365.605469 713.351562 366.515625 714.230469 367.453125 715.082031 C 368.390625 715.933594 369.328125 716.828125 370.339844 717.679688 L 370.960938 718.300781 C 385.820312 731.71875 400.492188 743.765625 415.789062 755.121094 C 431.75 766.960938 448.265625 777.976562 465.332031 788.160156 C 478.40625 795.867188 491.507812 802.992188 504.289062 809.3125 C 574.292969 844.1875 628.300781 902.113281 656.332031 972.480469 C 657.777344 976.203125 659.101562 979.523438 660.257812 982.652344 C 697.222656 1082.207031 691.914062 1174.675781 680.960938 1234.695312 Z M 680.960938 1234.695312 " fill-opacity="1" fill-rule="nonzero"/></g></svg>